<svg xmlns="http://www.w3.org/2000/svg" viewBox="0 0 4744 1280">
<path d="M 496.87,267.35 L 526.50,270.41 L 555.64,275.81 L 584.11,283.49 L 611.73,293.38 L 638.33,305.40 L 663.75,319.44 L 687.83,335.39 L 710.44,353.12 L 731.45,372.52 L 750.73,393.43 L 768.17,415.70 L 783.69,439.17 L 797.20,463.68 L 808.64,489.06 L 817.96,515.14 L 825.11,541.73 L 830.08,568.67 L 832.86,595.77 L 833.44,622.85 L 831.86,649.75 L 828.15,676.28 L 822.34,702.28 L 814.52,727.59 L 804.74,752.05 L 793.10,775.52 L 779.68,797.84 L 764.60,818.89 L 747.98,838.55 L 729.94,856.70 L 710.61,873.25 L 690.13,888.10 L 668.66,901.19 L 646.33,912.43 L 623.32,921.79 L 599.77,929.23 L 575.84,934.71 L 551.70,938.24 L 527.50,939.80 L 503.41,939.41 L 479.57,937.10 L 456.14,932.91 L 433.27,926.89 L 411.10,919.09 L 389.77,909.60 L 369.39,898.50 L 350.11,885.88 L 332.02,871.83 L 315.22,856.48 L 299.82,839.94 L 285.90,822.33 L 273.51,803.77 L 262.74,784.42 L 253.62,764.39 L 246.19,743.84 L 240.48,722.90 L 236.50,701.71 L 234.25,680.42 L 233.74,659.17 L 234.92,638.10 L 237.78,617.33 L 242.27,597.01 L 248.34,577.27 L 255.92,558.21 L 264.95,539.96 L 275.35,522.63 L 287.02,506.31 L 299.87,491.10 L 313.80,477.08 L 328.70,464.32 L 344.46,452.90 L 360.96,442.87 L 378.09,434.26 L 395.71,427.12 L 413.72,421.47 L 431.97,417.33 L 450.35,414.69 L 468.73,413.56 L 487.00,413.91 L 505.03,415.71 L 522.71,418.95 L 539.93,423.56 L 556.57,429.50 L 572.55,436.70 L 587.76,445.10 L 602.12,454.61 L 615.54,465.17 L 627.96,476.67 L 639.30,489.04 L 649.52,502.16 L 658.55,515.94 L 666.38,530.27 L 672.95,545.06 L 678.26,560.19 L 682.28,575.55 L 685.02,591.05 L 686.49,606.57 L 686.68,622.00 L 685.64,637.25 L 683.38,652.22 L 679.95,666.82 L 675.40,680.94 L 669.76,694.51 L 663.12,707.45 L 655.52,719.67 L 647.04,731.12 L 637.76,741.73 L 627.75,751.45 L 617.10,760.22 L 605.89,768.02 L 594.21,774.80 L 582.16,780.54 L 569.81,785.23 L 557.27,788.86 L 544.61,791.42 L 531.94,792.92 L 519.34,793.38 L 506.89,792.81 L 494.67,791.25 L 482.77,788.72 L 471.26,785.27" stroke="#FFFFFF" stroke-width="116.45" fill="none" stroke-linecap="round"/><circle cx="496.8727272727273" cy="640.0" r="69.87" fill="#7B61FF"/>
<g transform="translate(1017,1000) scale(1,-1)"><path d="M73 0V700H351Q415 700 465.5 674.5Q516 649 544.5 602.5Q573 556 573 491V478Q573 413 543.5 366.0Q514 319 464.0 294.0Q414 269 351 269H181V0ZM181 367H340Q397 367 431.0 397.0Q465 427 465 479V489Q465 542 431.0 572.0Q397 602 340 602H181Z" transform="translate(0,0)" fill="#FFFFFF"/><path d="M76 0V493H177V435H193Q205 466 231.5 480.5Q258 495 297 495H356V402H293Q243 402 211.0 374.5Q179 347 179 290V0Z" transform="translate(611,0)" fill="#FFFFFF"/><circle cx="1313.5" cy="239.5" r="258" fill="#FFFFFF"/><path d="M 1313.5,-18.5 A 258,258 0 0,1 1313.5,497.5 A 129.0,129.0 0 0,1 1313.5,239.5 A 129.0,129.0 0 0,0 1313.5,-18.5 Z" fill="#4B2FE8"/><path d="M52 244V259Q52 337 83.5 392.0Q115 447 167.0 477.0Q219 507 281 507Q353 507 391.5 480.0Q430 453 448 422H464V493H564V-101Q564 -146 537.5 -173.0Q511 -200 465 -200H133V-110H433Q462 -110 462 -80V77H446Q435 59 415.0 40.0Q395 21 362.5 9.0Q330 -3 281 -3Q219 -3 166.5 26.5Q114 56 83.0 111.5Q52 167 52 244ZM309 87Q376 87 419.5 129.5Q463 172 463 247V256Q463 333 420.0 374.5Q377 416 309 416Q243 416 199.5 374.5Q156 333 156 256V247Q156 172 199.5 129.5Q243 87 309 87Z" transform="translate(1629,0)" fill="#FFFFFF"/><path d="M76 0V493H177V435H193Q207 461 238.0 481.0Q269 501 322 501Q377 501 410.5 478.5Q444 456 461 421H477Q494 455 526.5 478.0Q559 501 619 501Q667 501 704.0 481.5Q741 462 763.0 423.5Q785 385 785 328V0H682V320Q682 365 657.5 389.5Q633 414 588 414Q540 414 511.0 383.0Q482 352 482 294V0H379V320Q379 365 354.5 389.5Q330 414 285 414Q237 414 208.0 383.0Q179 352 179 294V0Z" transform="translate(2277,0)" fill="#FFFFFF"/><path d="M229 -14Q176 -14 134.5 4.0Q93 22 68.5 57.0Q44 92 44 142Q44 193 68.5 226.5Q93 260 135.5 277.0Q178 294 232 294H382V326Q382 369 356.0 395.0Q330 421 276 421Q223 421 195.0 396.0Q167 371 158 331L62 362Q74 402 100.5 434.5Q127 467 171.0 487.0Q215 507 277 507Q373 507 428.0 458.0Q483 409 483 319V116Q483 86 511 86H553V0H476Q441 0 419.0 18.0Q397 36 397 67V70H382Q374 55 358.0 35.0Q342 15 311.0 0.5Q280 -14 229 -14ZM244 71Q306 71 344.0 106.5Q382 142 382 204V214H238Q197 214 172.0 196.5Q147 179 147 145Q147 111 173.0 91.0Q199 71 244 71Z" transform="translate(3142,0)" fill="#FFFFFF"/></g></svg>